<svg width="20" height="20" viewBox="0 0 20 20" fill="none" xmlns="http://www.w3.org/2000/svg">
<path id="Vector" d="M2.5 5C1.83696 5 1.20108 4.73661 0.732235 4.26777C0.263395 3.79892 0 3.16304 0 2.5C0 1.83696 0.263395 1.20107 0.732235 0.732233C1.20108 0.263392 1.83696 0 2.5 0H17.5C18.163 0 18.7989 0.263392 19.2678 0.732233C19.7366 1.20107 20 1.83696 20 2.5V17.5C20 18.163 19.7366 18.7989 19.2678 19.2678C18.7989 19.7366 18.163 20 17.5 20C16.837 20 16.2011 19.7366 15.7322 19.2678C15.2634 18.7989 15 18.163 15 17.5V8.535L4.2675 19.2675C3.796 19.7229 3.16449 19.9749 2.509 19.9692C1.85351 19.9635 1.22647 19.7006 0.762954 19.237C0.299434 18.7735 0.036512 18.1465 0.030816 17.491C0.0251199 16.8355 0.277106 16.204 0.732501 15.7325L11.465 5H2.5Z" fill="#E7E8E8"/>
</svg>
